<mxfile host="app.diagrams.net" modified="2022-11-15T00:18:24.887Z" agent="5.0 (iPhone; CPU iPhone OS 15_1 like Mac OS X) AppleWebKit/605.1.15 (KHTML, like Gecko) FxiOS/106.2  Mobile/15E148 Safari/605.1.15" etag="aTDKBHFGys-FNH0qaPrv" version="20.5.3" type="github">
  <diagram id="kGv_vZeduOFwRs7YzCex" name="Page-1">
    <mxGraphModel dx="647" dy="1144" grid="0" gridSize="10" guides="1" tooltips="1" connect="1" arrows="1" fold="1" page="0" pageScale="1" pageWidth="827" pageHeight="1169" math="0" shadow="0">
      <root>
        <mxCell id="0" />
        <mxCell id="1" parent="0" />
        <mxCell id="nyKOxjoBN5lLLicJEgR8-4" value="Cassandra node 2&lt;br&gt;For fees&lt;br&gt;Coin:fee on every market" style="rounded=0;whiteSpace=wrap;html=1;fontSize=16;" vertex="1" parent="1">
          <mxGeometry x="668" y="485" width="160" height="84" as="geometry" />
        </mxCell>
        <mxCell id="nyKOxjoBN5lLLicJEgR8-1" value="Cassandra node 1&lt;br&gt;For coins: volumes markets" style="rounded=0;whiteSpace=wrap;html=1;fontSize=16;" vertex="1" parent="1">
          <mxGeometry x="386" y="487" width="160" height="80" as="geometry" />
        </mxCell>
        <mxCell id="nyKOxjoBN5lLLicJEgR8-2" value="App" style="rounded=0;whiteSpace=wrap;html=1;fontSize=16;" vertex="1" parent="1">
          <mxGeometry x="554" y="223" width="160" height="80" as="geometry" />
        </mxCell>
        <mxCell id="nyKOxjoBN5lLLicJEgR8-3" value="" style="edgeStyle=none;orthogonalLoop=1;jettySize=auto;html=1;rounded=0;fontSize=12;endArrow=open;startSize=14;endSize=14;sourcePerimeterSpacing=8;targetPerimeterSpacing=8;curved=1;entryX=0.75;entryY=0;entryDx=0;entryDy=0;exitX=0.5;exitY=1;exitDx=0;exitDy=0;" edge="1" parent="1" source="nyKOxjoBN5lLLicJEgR8-2" target="nyKOxjoBN5lLLicJEgR8-1">
          <mxGeometry width="140" relative="1" as="geometry">
            <mxPoint x="480" y="409" as="sourcePoint" />
            <mxPoint x="620" y="409" as="targetPoint" />
            <Array as="points" />
          </mxGeometry>
        </mxCell>
        <mxCell id="nyKOxjoBN5lLLicJEgR8-5" style="edgeStyle=none;curved=1;rounded=0;orthogonalLoop=1;jettySize=auto;html=1;fontSize=12;endArrow=open;startSize=14;endSize=14;sourcePerimeterSpacing=8;targetPerimeterSpacing=8;entryX=0.5;entryY=0;entryDx=0;entryDy=0;exitX=0.5;exitY=1;exitDx=0;exitDy=0;" edge="1" parent="1" source="nyKOxjoBN5lLLicJEgR8-2" target="nyKOxjoBN5lLLicJEgR8-4">
          <mxGeometry relative="1" as="geometry">
            <mxPoint x="639" y="307" as="sourcePoint" />
            <mxPoint x="744" y="474" as="targetPoint" />
          </mxGeometry>
        </mxCell>
        <mxCell id="nyKOxjoBN5lLLicJEgR8-6" value="" style="edgeStyle=none;orthogonalLoop=1;jettySize=auto;html=1;rounded=0;fontSize=12;endArrow=open;startSize=14;endSize=14;sourcePerimeterSpacing=8;targetPerimeterSpacing=8;curved=1;entryX=0;entryY=0.5;entryDx=0;entryDy=0;" edge="1" parent="1" target="nyKOxjoBN5lLLicJEgR8-4">
          <mxGeometry width="140" relative="1" as="geometry">
            <mxPoint x="544" y="526.38" as="sourcePoint" />
            <mxPoint x="664" y="523" as="targetPoint" />
            <Array as="points" />
          </mxGeometry>
        </mxCell>
      </root>
    </mxGraphModel>
  </diagram>
</mxfile>
